<svg width="1200" height="630" viewBox="0 0 1200 630" fill="none" xmlns="http://www.w3.org/2000/svg">
  <defs>
    <linearGradient id="bg" x1="120" y1="70" x2="1080" y2="560" gradientUnits="userSpaceOnUse">
      <stop stop-color="#132124"/>
      <stop offset="1" stop-color="#1A1A1D"/>
    </linearGradient>
    <linearGradient id="panel" x1="140" y1="110" x2="960" y2="520" gradientUnits="userSpaceOnUse">
      <stop stop-color="#234D46"/>
      <stop offset="1" stop-color="#17332E"/>
    </linearGradient>
  </defs>

  <rect width="1200" height="630" fill="url(#bg)"/>
  <rect x="58" y="58" width="1084" height="514" rx="20" fill="#F4F1EA" stroke="#111111" stroke-width="8"/>
  <rect x="86" y="86" width="1028" height="458" rx="14" fill="url(#panel)"/>

  <rect x="126" y="124" width="190" height="44" rx="8" fill="#F4F1EA"/>
  <text x="221" y="153" text-anchor="middle" fill="#17332E" font-family="'Arial Black', 'Helvetica Neue', Arial, sans-serif" font-size="24" letter-spacing="2">CROSSPORT MSZ</text>

  <text x="126" y="248" fill="#F4F1EA" font-family="'Arial Black', 'Helvetica Neue', Arial, sans-serif" font-size="84" letter-spacing="-1">
    <tspan x="126" dy="0">IKI ISLAND</tspan>
    <tspan x="126" dy="92">COWORKING</tspan>
  </text>

  <text x="132" y="414" fill="#9ED3C7" font-family="'Helvetica Neue', Arial, sans-serif" font-size="28" font-weight="700" letter-spacing="4">
    WORK / GATHER / START
  </text>

  <text x="126" y="474" fill="#F4F1EA" font-family="'Helvetica Neue', Arial, sans-serif" font-size="30" font-weight="700">
    郷ノ浦港そばのコワーキング・レンタカー・会議室・カフェ
  </text>

  <text x="126" y="520" fill="#D6E4DE" font-family="'Helvetica Neue', Arial, sans-serif" font-size="24" font-weight="600">
    壱岐で、働く・集う・始めるための拠点
  </text>

  <circle cx="950" cy="184" r="92" fill="#F4F1EA" fill-opacity="0.12"/>
  <circle cx="1014" cy="246" r="42" fill="#9ED3C7" fill-opacity="0.24"/>
  <circle cx="902" cy="274" r="24" fill="#F4F1EA" fill-opacity="0.18"/>
  <path d="M864 418C899 373 945 350 1001 350C1050 350 1090 368 1120 404" stroke="#9ED3C7" stroke-width="8" stroke-linecap="round"/>
  <path d="M834 454C889 412 946 391 1007 391C1047 391 1086 400 1122 421" stroke="#F4F1EA" stroke-opacity="0.82" stroke-width="8" stroke-linecap="round"/>
  <path d="M804 492C874 455 945 435 1017 435C1051 435 1086 440 1120 450" stroke="#9ED3C7" stroke-opacity="0.9" stroke-width="8" stroke-linecap="round"/>

  <rect x="842" y="470" width="222" height="44" rx="10" fill="#F4F1EA"/>
  <text x="953" y="498" text-anchor="middle" fill="#17332E" font-family="'Arial Black', 'Helvetica Neue', Arial, sans-serif" font-size="22" letter-spacing="2">
    CROSSPORT.CC
  </text>
</svg>
